<svg version="1.2" xmlns="http://www.w3.org/2000/svg" viewBox="0 0 1684 2381" width="1684" height="2381">
	<style>
		tspan { white-space:pre } 
		.s0 { fill: #1c4d4f } 
		.t1 { font-size: 32px;line-height: 24px;fill: #ffffff;font-weight: 700;font-family: "JosefinSans-Bold", "Josefin Sans" } 
		.t2 { font-size: 32px;line-height: 36px;fill: #ffffff;font-weight: 700;font-family: "JosefinSans-Bold", "Josefin Sans" } 
	</style>
	<path id="Path 112" fill-rule="evenodd" class="s0" d="m533.39 160.29c0 0-1.74 39.68-26.38 57.45-7.54 5.44-16.36 8.2-24.96 9.41 10.15 15.96 16.03 34.89 16.03 55.21 0 56.91-46.14 103.05-103.06 103.05-56.91 0-103.05-46.14-103.05-103.05 0-56.92 46.14-103.06 103.05-103.06 20.42 0 39.45 5.94 55.46 16.18 3.87-10.29 10.09-21.08 20.07-28.28 24.64-17.77 62.84-6.91 62.84-6.91zm976.71-6.24c0 0-1.33 30.15-20.05 43.66-5.74 4.14-12.43 6.23-18.97 7.15 7.71 12.13 12.18 26.52 12.18 41.96 0 43.25-35.07 78.32-78.32 78.32-43.26 0-78.33-35.07-78.33-78.32 0-43.26 35.07-78.32 78.33-78.32 15.51 0 29.97 4.51 42.14 12.29 2.95-7.82 7.67-16.02 15.26-21.49 18.72-13.51 47.76-5.25 47.76-5.25z"/>
	<text id="Lite   godare  &amp; bättre   mat" style="transform: matrix(1,0,0,1,331,216.458)" >
		<tspan x="49" y="25.2" class="t1">Lite  </tspan><tspan  y="25.2" class="t2">
</tspan>
		<tspan x="10" y="61.2" class="t2">godare 
</tspan>
		<tspan x="0" y="97.2" class="t2">&amp; bättre  
</tspan>
		<tspan x="35" y="133.2" class="t2">mat
</tspan>
	</text>
</svg>